<?xml version="1.0" standalone="no"?><!DOCTYPE svg PUBLIC "-//W3C//DTD SVG 1.1//EN" "http://www.w3.org/Graphics/SVG/1.1/DTD/svg11.dtd"><svg t="1743046434070" class="icon" viewBox="0 0 1024 1024" version="1.1" xmlns="http://www.w3.org/2000/svg" p-id="5630" xmlns:xlink="http://www.w3.org/1999/xlink" width="200" height="200"><path d="M657.8 696.3l39.1-39.1 262.5 262.5-44.7 39.1-256.9-262.5z" p-id="5631"></path><path d="M691.3 958.7l-39.1-39.1 262.5-262.5 39.1 39.1-262.5 262.5zM510.7 321.7L678.6 516H588v223.4H437.6V516h-92.1l165.2-194.3m-0.4-98.3L207.1 580h166.5v223.4H652V580h166.5L510.3 223.4z" p-id="5632"></path><path d="M512.8 896.2H129.3V129.3h766.9v383.5h64V110.3c0-24.9-20.1-45-45-45H110.3c-24.9 0-45 20.1-45 45v804.9c0 24.9 20.1 45 45 45h402.5v-64z" p-id="5633"></path></svg>