<svg width="16" height="20" viewBox="0 0 16 20" fill="" xmlns="http://www.w3.org/2000/svg">
<path d="M11.3333 2.49998H2.16667V17.5H13.8333V5.01623H11.75C11.6395 5.01623 11.5335 4.97233 11.4554 4.89419C11.3772 4.81605 11.3333 4.71007 11.3333 4.59956V2.49998ZM1.33333 0.833313H12.2379C12.3474 0.833282 12.4558 0.85483 12.557 0.896725C12.6582 0.938621 12.7501 1.00004 12.8275 1.07748L15.2563 3.50706C15.4124 3.66338 15.5001 3.87529 15.5 4.09623V18.3333C15.5 18.5543 15.4122 18.7663 15.2559 18.9226C15.0996 19.0788 14.8877 19.1666 14.6667 19.1666H1.33333C1.11232 19.1666 0.900358 19.0788 0.744078 18.9226C0.587797 18.7663 0.5 18.5543 0.5 18.3333V1.66665C0.5 1.44563 0.587797 1.23367 0.744078 1.07739C0.900358 0.92111 1.11232 0.833313 1.33333 0.833313ZM4.66667 8.33331H11.3333C11.4438 8.33331 11.5498 8.37721 11.628 8.45535C11.7061 8.53349 11.75 8.63947 11.75 8.74998V9.58331C11.75 9.69382 11.7061 9.7998 11.628 9.87794C11.5498 9.95608 11.4438 9.99998 11.3333 9.99998H4.66667C4.55616 9.99998 4.45018 9.95608 4.37204 9.87794C4.2939 9.7998 4.25 9.69382 4.25 9.58331V8.74998C4.25 8.63947 4.2939 8.53349 4.37204 8.45535C4.45018 8.37721 4.55616 8.33331 4.66667 8.33331ZM4.66667 12.5H8.41667C8.47138 12.5 8.52557 12.5108 8.57612 12.5317C8.62667 12.5526 8.6726 12.5833 8.71129 12.622C8.74999 12.6607 8.78068 12.7066 8.80162 12.7572C8.82256 12.8077 8.83333 12.8619 8.83333 12.9166V13.75C8.83333 13.8047 8.82256 13.8589 8.80162 13.9094C8.78068 13.96 8.74999 14.0059 8.71129 14.0446C8.6726 14.0833 8.62667 14.114 8.57612 14.1349C8.52557 14.1559 8.47138 14.1666 8.41667 14.1666H4.66667C4.55616 14.1666 4.45018 14.1227 4.37204 14.0446C4.2939 13.9665 4.25 13.8605 4.25 13.75V12.9166C4.25 12.8061 4.2939 12.7002 4.37204 12.622C4.45018 12.5439 4.55616 12.5 4.66667 12.5Z" fill=""/>
</svg>
