<svg width="20" height="20" viewBox="0 0 20 20" xmlns="http://www.w3.org/2000/svg">
<path fill-rule="evenodd" clip-rule="evenodd" d="M8.33268 2.30014V1.66667C8.33268 1.43655 8.51923 1.25 8.74935 1.25H11.2494C11.4795 1.25 11.666 1.43655 11.666 1.66667V2.30014C14.5414 3.06408 16.666 5.75845 16.666 8.96505V13.75H17.916C18.1461 13.75 18.3327 13.9365 18.3327 14.1667V15C18.3327 15.2301 18.1461 15.4167 17.916 15.4167H2.08268C1.85256 15.4167 1.66602 15.2301 1.66602 15V14.1667C1.66602 13.9365 1.85256 13.75 2.08268 13.75H3.33268V8.96505C3.33268 5.75845 5.4573 3.06408 8.33268 2.30014ZM4.99935 13.75H14.9994V8.96739C14.9994 6.08591 12.7608 3.75 9.99935 3.75C7.23793 3.75 4.99935 6.08591 4.99935 8.96739V13.75ZM7.91602 16.6667H12.0827C12.3128 16.6667 12.4994 16.8532 12.4994 17.0833V17.9167C12.4994 18.1468 12.3128 18.3333 12.0827 18.3333H7.91602C7.6859 18.3333 7.49935 18.1468 7.49935 17.9167V17.0833C7.49935 16.8532 7.6859 16.6667 7.91602 16.6667Z" />
</svg>
