<svg width="80" height="56" viewBox="0 0 80 56" fill="none" xmlns="http://www.w3.org/2000/svg">
  <path fill-rule="evenodd" clip-rule="evenodd" d="M7 2.00391V53.0016V54.0016H4V2.00391H7Z" fill="#DEE0E3"/>
  <path d="M9.5 14C9.22386 14 9 13.7761 9 13.5V6.5C9 6.22386 9.22386 6 9.5 6L71.5 6C71.7761 6 72 6.22386 72 6.5V13.5C72 13.7761 71.7761 14 71.5 14L9.5 14Z" fill="#DEE0E3"/>
  <path d="M9.5 26C9.22386 26 9 25.7761 9 25.5V18.5C9 18.2239 9.22386 18 9.5 18H71.5C71.7761 18 72 18.2239 72 18.5V25.5C72 25.7761 71.7761 26 71.5 26L9.5 26Z" fill="#DEE0E3"/>
  <path d="M9.5 38C9.22386 38 9 37.7761 9 37.5V30.5C9 30.2239 9.22386 30 9.5 30H71.5C71.7761 30 72 30.2239 72 30.5V37.5C72 37.7761 71.7761 38 71.5 38H9.5Z" fill="#DEE0E3"/>
  <path d="M9.5 50C9.22386 50 9 49.7761 9 49.5V42.5C9 42.2239 9.22386 42 9.5 42H71.5C71.7761 42 72 42.2239 72 42.5V49.5C72 49.7761 71.7761 50 71.5 50H9.5Z" fill="#DEE0E3"/>
  <path d="M9 12V8L44.5 8C44.7761 8 45 8.22386 45 8.5V11.5C45 11.7761 44.7761 12 44.5 12L9 12Z" fill="#3370FF"/>
  <path d="M9 24V20H55.5C55.7761 20 56 20.2239 56 20.5V23.5C56 23.7761 55.7761 24 55.5 24H9Z" fill="#3370FF"/>
  <path d="M9 36V32H37.5C37.7761 32 38 32.2239 38 32.5V35.5C38 35.7761 37.7761 36 37.5 36H9Z" fill="#3370FF"/>
  <path d="M9 48V44H21.5C21.7761 44 22 44.2239 22 44.5V47.5C22 47.7761 21.7761 48 21.5 48H9Z" fill="#3370FF"/>
  <path d="M47 14V6H48V14H47Z" fill="#3370FF"/>
  <path d="M52 26V18H53V26H52Z" fill="#3370FF"/>
  <path d="M42 38V30H43V38H42Z" fill="#3370FF"/>
  <path d="M54 50V42H55V50H54Z" fill="#3370FF"/>
</svg>
