<?xml version="1.0" standalone="no"?><!DOCTYPE svg PUBLIC "-//W3C//DTD SVG 1.1//EN" "http://www.w3.org/Graphics/SVG/1.1/DTD/svg11.dtd"><svg t="1738739001616" class="icon" viewBox="0 0 1175 1024" version="1.1" xmlns="http://www.w3.org/2000/svg" p-id="8488" xmlns:xlink="http://www.w3.org/1999/xlink" width="229.4921875" height="200"><path d="M587.83008 276.574053a235.132032 235.132032 0 0 1 235.132033 235.132032 249.533869 249.533869 0 0 1-1.469576 25.864523l170.470724 170.764639A1046.631458 1046.631458 0 0 0 1175.660161 511.706085c-161.065442-220.43628-365.336395-352.698048-587.830081-352.698048a562.553387 562.553387 0 0 0-129.616532 15.577497l103.752009 103.458094a249.533869 249.533869 0 0 1 25.864523-1.469575zM76.123995 83.177956L255.706085 262.760046A987.554535 987.554535 0 0 0 0 511.706085c161.065442 220.730195 365.336395 352.698048 587.83008 352.698048a575.485649 575.485649 0 0 0 223.375431-46.144661l205.740528 205.740528L1099.536165 940.528129l-940.528128-940.528129zM352.698048 511.706085a231.311137 231.311137 0 0 1 32.918485-119.035591l88.174512 88.174512a113.745121 113.745121 0 0 0-4.408726 29.391504 117.566016 117.566016 0 0 0 117.566016 117.566016 111.98163 111.98163 0 0 0 29.391504-4.408726l45.850747 45.850746L705.396096 712.743972a235.132032 235.132032 0 0 1-352.698048-202.507462z" p-id="8489"></path></svg>