<svg width="16" height="16" viewBox="0 0 16 16" xmlns="http://www.w3.org/2000/svg">
<path d="M3.0166 1H11.3095C11.4421 1 11.5693 1.05268 11.663 1.14645L13.3702 2.85355C13.4639 2.94732 13.5166 3.0745 13.5166 3.20711V14.5C13.5166 14.7761 13.2927 15 13.0166 15L6.61962 14.9998C6.61373 14.9998 6.60786 14.9997 6.60202 14.9995L6.60786 14.9997V13.8H12.3167V4H10.6916C10.595 4 10.5166 3.92165 10.5166 3.825V2.2H3.71668V8.98657H2.5166V1.5C2.5166 1.22386 2.74046 1 3.0166 1Z" />
<path d="M5.94584 9.5C5.68794 9.26773 5.36928 9.10161 5.0166 9.02837V8.41667C5.0166 8.35224 5.06884 8.3 5.13327 8.3H8.23327C8.2977 8.3 8.34994 8.35223 8.34994 8.41667V9.38333C8.34994 9.44777 8.2977 9.5 8.23327 9.5H5.94584Z"/>
<path d="M5.0166 5.91667C5.0166 5.85223 5.06884 5.8 5.13327 5.8H10.8999C10.9644 5.8 11.0166 5.85223 11.0166 5.91667V6.88333C11.0166 6.94777 10.9644 7 10.8999 7H5.13327C5.06884 7 5.0166 6.94777 5.0166 6.88333V5.91667Z"/>
<path d="M5.17545 10.1799C5.17545 10.0805 5.09492 10 4.99557 10H1.00471C0.844448 10 0.76419 10.1938 0.87751 10.3071L2.15664 11.5862C1.31561 12.545 0.686543 14.7137 1.72678 15.754C1.79493 15.8221 1.8973 15.9133 2.00475 15.9865C2.03989 16.0091 2.07237 16.0023 2.09415 15.9741C2.10517 15.9586 2.10964 15.9395 2.10658 15.9207C2.10038 15.8659 2.09586 15.8212 2.09186 15.7817C2.0886 15.7497 2.0857 15.721 2.08252 15.693C2.00232 14.9869 2.885 13.7726 3.59451 13.0241L4.86837 14.2979C4.98169 14.4113 5.17545 14.331 5.17545 14.1707L5.17545 10.1799Z"/>
</svg>
