<svg width="32" height="32" viewBox="0 0 32 32" fill="none" xmlns="http://www.w3.org/2000/svg">
  <path d="M16 5.33335C16 3.86059 17.1939 2.66669 18.6667 2.66669H26.6667C28.1394 2.66669 29.3333 3.86059 29.3333 5.33335V13.3334C29.3333 14.8061 28.1394 16 26.6667 16H18.6667C17.1939 16 16 14.8061 16 13.3334V5.33335ZM18.6667 5.33335V13.3334H26.6667V5.33335H18.6667Z" fill="#34C724"/>
  <path d="M2.66666 18.6667C2.66666 17.1939 3.86057 16 5.33333 16H13.3333C14.8061 16 16 17.1939 16 18.6667V26.6667C16 28.1394 14.8061 29.3334 13.3333 29.3334H5.33333C3.86057 29.3334 2.66666 28.1394 2.66666 26.6667V18.6667ZM5.33333 18.6667V26.6667H13.3333V18.6667H5.33333Z" fill="#34C724"/>
  <path d="M4 9.33335C4 5.65146 6.98477 2.66669 10.6667 2.66669H13.3333V5.33335H10.6667C8.45753 5.33335 6.66666 7.12422 6.66666 9.33335H8.46364C8.80538 9.33335 8.98975 9.7342 8.76735 9.99367L5.63703 13.6457C5.4774 13.8319 5.18927 13.8319 5.02963 13.6457L1.89932 9.99367C1.67691 9.7342 1.86128 9.33335 2.20302 9.33335H4Z" fill="#34C724"/>
  <path d="M28 22.6667C28 26.3486 25.0152 29.3334 21.3333 29.3334H18.6667V26.6667H21.3333C23.5425 26.6667 25.3333 24.8758 25.3333 22.6667V22H23.5364C23.1946 22 23.0102 21.5992 23.2327 21.3397L26.363 17.6877C26.5226 17.5014 26.8107 17.5014 26.9704 17.6877L30.1007 21.3397C30.3231 21.5992 30.1387 22 29.797 22H28V22.6667Z" fill="#34C724"/>
</svg>
