<?xml version="1.0" standalone="no"?><!DOCTYPE svg PUBLIC "-//W3C//DTD SVG 1.1//EN" "http://www.w3.org/Graphics/SVG/1.1/DTD/svg11.dtd"><svg t="1741080458837" class="icon" viewBox="0 0 1024 1024" version="1.1" xmlns="http://www.w3.org/2000/svg" p-id="4350" xmlns:xlink="http://www.w3.org/1999/xlink" width="200" height="200"><path d="M851.42 64.58H172.58c-59.65 0-108 48.35-108 108v678.84c0 59.65 48.35 108 108 108h678.84c59.65 0 108-48.35 108-108V172.58c0-59.65-48.35-108-108-108z m47 786.84c0 25.92-21.08 47-47 47H172.58c-25.92 0-47-21.08-47-47V172.58c0-25.92 21.08-47 47-47h678.84c25.92 0 47 21.08 47 47v678.84z" p-id="4351"></path><path d="M382.64 225.23h-0.08c-16.84 0.04-30.46 13.73-30.42 30.58l0.25 97.26h-99.14c-16.84 0-30.5 13.66-30.5 30.5s13.66 30.5 30.5 30.5h129.72c8.1 0 15.87-3.22 21.59-8.96a30.515 30.515 0 0 0 8.91-21.62l-0.33-127.84c-0.05-16.82-13.69-30.42-30.5-30.42zM381 608.3l-127.84 0.33c-16.84 0.04-30.46 13.73-30.42 30.58 0.04 16.82 13.69 30.42 30.5 30.42h0.08l97.26-0.25v99.14c0 16.84 13.66 30.5 30.5 30.5s30.5-13.66 30.5-30.5V638.8c0-8.1-3.22-15.87-8.96-21.59s-13.54-8.93-21.62-8.91zM765.08 353.47l-97.26 0.25v-99.14c0-16.84-13.66-30.5-30.5-30.5s-30.5 13.66-30.5 30.5V384.3c0 8.1 3.22 15.87 8.96 21.59 5.72 5.7 13.46 8.91 21.54 8.91h0.08l127.84-0.33c16.84-0.04 30.47-13.73 30.42-30.58-0.05-16.85-13.77-30.48-30.58-30.42zM765.16 609.03H635.43c-8.1 0-15.87 3.22-21.59 8.96a30.515 30.515 0 0 0-8.91 21.62l0.33 127.84c0.04 16.82 13.69 30.42 30.5 30.42h0.08c16.84-0.04 30.46-13.73 30.42-30.58l-0.25-97.26h99.14c16.84 0 30.5-13.66 30.5-30.5s-13.65-30.5-30.49-30.5z" p-id="4352"></path></svg>