<svg width="16" height="16" viewBox="0 0 16 16" xmlns="http://www.w3.org/2000/svg">
<path d="M14 12.3327V13.9993C14 14.3675 13.7015 14.666 13.3333 14.666H2.66667C2.29848 14.666 2 14.3675 2 13.9993V12.3327C2 12.1486 2.14924 11.9993 2.33333 11.9993H3C3.18409 11.9993 3.33333 12.1486 3.33333 12.3327V13.3327H12.6667V12.3327C12.6667 12.1486 12.8159 11.9993 13 11.9993H13.6667C13.8508 11.9993 14 12.1486 14 12.3327ZM8.66667 9.35649L10.6736 7.34951C10.8038 7.21934 11.0149 7.21934 11.1451 7.34951L11.6165 7.82092C11.7466 7.95109 11.7466 8.16215 11.6165 8.29232L8.31663 11.5922C8.25154 11.6572 8.16623 11.6898 8.08092 11.6898C7.99562 11.6898 7.91031 11.6572 7.84522 11.5922L4.54539 8.29232C4.41521 8.16215 4.41521 7.95109 4.54539 7.82092L5.01679 7.34951C5.14697 7.21934 5.35802 7.21934 5.4882 7.34951L7.33334 9.19465V1.99935C7.33334 1.81525 7.48257 1.66602 7.66667 1.66602H8.33334C8.51743 1.66602 8.66667 1.81525 8.66667 1.99935V9.35649Z" />
</svg>
