<svg width="20" height="20" viewBox="0 0 20 20" xmlns="http://www.w3.org/2000/svg">
<path fill-rule="evenodd" clip-rule="evenodd" d="M10.0006 17.5006C14.1428 17.5006 17.5006 14.1428 17.5006 10.0006C17.5006 5.85851 14.1428 2.50065 10.0006 2.50065C5.85851 2.50065 2.50065 5.85851 2.50065 10.0006C2.50065 14.1428 5.85851 17.5006 10.0006 17.5006ZM10.0006 19.1673C4.93804 19.1673 0.833984 15.0633 0.833984 10.0006C0.833984 4.93804 4.93804 0.833984 10.0006 0.833984C15.0633 0.833984 19.1673 4.93804 19.1673 10.0006C19.1673 15.0633 15.0633 19.1673 10.0006 19.1673ZM9.58398 13.334H10.4173C10.6474 13.334 10.834 13.5205 10.834 13.7506V14.584C10.834 14.8141 10.6474 15.0006 10.4173 15.0006H9.58398C9.35386 15.0006 9.16732 14.8141 9.16732 14.584V13.7506C9.16732 13.5205 9.35386 13.334 9.58398 13.334ZM6.70886 7.73541C6.71945 7.64227 6.7303 7.56478 6.7414 7.50296C6.90385 6.5983 7.31527 5.93301 7.97566 5.50708C8.49287 5.16946 9.12841 5.00065 9.88231 5.00065C10.8729 5.00065 11.6958 5.24054 12.3511 5.72031C13.0063 6.20009 13.334 6.91086 13.334 7.85264C13.334 8.43015 13.1915 8.91658 12.9066 9.31195C12.7401 9.55184 12.4201 9.85836 11.9467 10.2315L11.4799 10.598C11.2257 10.7979 11.057 11.0311 10.9737 11.2977C10.951 11.3704 10.9311 11.5056 10.9139 11.7034C10.8953 11.9187 10.715 12.084 10.4988 12.084H9.566C9.33588 12.084 9.14933 11.8974 9.14933 11.6673C9.14933 11.6545 9.14992 11.6417 9.1511 11.6289C9.20476 11.049 9.26221 10.6821 9.32346 10.528C9.43742 10.2415 9.73109 9.91167 10.2045 9.53851L10.6844 9.15869C10.8422 9.03875 11.6553 8.46619 11.6553 7.95926C11.6553 7.45232 11.567 7.26587 11.3125 6.98766C11.0579 6.70944 10.485 6.61989 9.96777 6.61989C9.45933 6.61989 9.02486 6.75491 8.81228 7.09697C8.71382 7.2554 8.63331 7.42441 8.57524 7.59685C8.5524 7.66469 8.53215 7.75004 8.51452 7.8529C8.48022 8.05292 8.30679 8.19914 8.10384 8.19914H7.12287C6.89275 8.19915 6.7062 8.0126 6.7062 7.78248C6.7062 7.76675 6.70709 7.75104 6.70886 7.73541Z"/>
</svg>
